<?xml version="1.0" encoding="utf-8"?>
<!-- Generator: Adobe Illustrator 23.0.1, SVG Export Plug-In . SVG Version: 6.00 Build 0)  -->
<svg version="1.1" id="Layer_1" xmlns="http://www.w3.org/2000/svg" xmlns:xlink="http://www.w3.org/1999/xlink" x="0px" y="0px"
	 viewBox="0 0 100 100" style="enable-background:new 0 0 100 100;" xml:space="preserve">
<style type="text/css">
	.st0{fill:#BC0C06;stroke:#000000;stroke-miterlimit:10;}
</style>
<path class="st0" d="M88,39.5C84.8,27,82,25,70.8,24.5c-2.6-0.1-6-0.1-8.1,3.4c-1,1.5-2.6,1.4-4.1,1.4H41.4c-1.5,0-3.1,0.3-4.1-1.3
	c-2.2-3.5-5.5-3.5-8.1-3.4C18,25.1,15.2,27.1,12,39.6c-1.6,6.3-4.8,18.8-6.5,25.1c-1.1,4-0.1,6.5,4,9.5c2.9,2.1,7.4,1.9,10.2-0.7
	c2.9-2.8,4.8-6.2,7.5-9.6c1.3-1.6,2.6-2.5,5.5-1.5c5.8,1.9,11.3,2.1,16.3,2.2c6,0.1,12.3-0.3,18.2-2.3c3-1,4.2-0.1,5.5,1.5
	c2.8,3.4,4.6,6.8,7.5,9.6c2.8,2.6,7.3,2.8,10.2,0.7c4.1-3,5.1-5.5,4-9.5C92,55.7,90.1,47.9,88,39.5z M38.6,46.2
	c0,1.3-1.1,2.4-2.4,2.4h-4.5v4.5c0,1.3-1.1,2.4-2.4,2.4h-1.9c-1.3,0-2.4-1.1-2.4-2.4v-4.5h-4.5c-1.3,0-2.4-1.1-2.4-2.4v-1.9
	c0-1.3,1.1-2.4,2.4-2.4H25v-4.5c0-1.3,1.1-2.4,2.4-2.4h1.9c1.3,0,2.4,1.1,2.4,2.4v4.5h4.5c1.3,0,2.4,1.1,2.4,2.4V46.2z M63.3,55.2
	c-2.5,0-4.5-2-4.5-4.5c0-2.5,2-4.5,4.5-4.5c2.5,0,4.5,2,4.5,4.5C67.8,53.2,65.8,55.2,63.3,55.2z M65.4,39.4c0-2.5,2-4.5,4.5-4.5
	c2.5,0,4.5,2,4.5,4.5c0,2.5-2,4.5-4.5,4.5C67.4,43.9,65.4,41.9,65.4,39.4z M76.5,55.2c-2.5,0-4.5-2-4.5-4.5c0-2.5,2-4.5,4.5-4.5
	c2.5,0,4.5,2,4.5,4.5C81,53.2,78.9,55.2,76.5,55.2z"/>
</svg>
